# Blender 5.0.1
# www.blender.org
mtllib gate_uzh2.mtl
o mesh9
v -1.450000 -1.450000 0.100000
v 1.450000 -1.450000 0.100000
v 1.450000 -1.450000 0.000000
v -1.450000 -1.450000 0.000000
v -1.200000 1.200000 0.100000
v -1.200000 1.200000 0.000000
v 1.200000 1.200000 0.000000
v 1.200000 1.200000 0.100000
v 1.200000 1.200000 0.000000
v 1.200000 1.200000 0.100000
v 1.200000 -1.200000 0.000000
v 1.200000 -1.200000 0.100000
v 1.200000 -1.200000 0.000000
v 1.200000 -1.200000 0.100000
v -1.200000 -1.200000 0.000000
v -1.200000 -1.200000 0.100000
v -1.200000 1.200000 0.100000
v -1.200000 1.200000 0.000000
v -1.200000 -1.200000 0.000000
v -1.200000 -1.200000 0.100000
v -1.200000 1.200000 0.100000
v 1.200000 1.200000 0.100000
v 1.200000 -1.200000 0.100000
v -1.200000 -1.200000 0.100000
v 1.450000 1.450000 0.100000
v -1.450000 1.450000 0.100000
v -1.450000 -1.450000 0.100000
v 1.450000 -1.450000 0.100000
v -1.200000 1.200000 0.000000
v 1.200000 1.200000 0.000000
v 1.200000 -1.200000 0.000000
v -1.200000 -1.200000 0.000000
v -1.450000 1.450000 0.000000
v 1.450000 1.450000 0.000000
v 1.450000 -1.450000 0.000000
v -1.450000 -1.450000 0.000000
v 1.450000 1.450000 0.100000
v 1.450000 -1.450000 0.100000
v 1.450000 1.450000 0.000000
v 1.450000 -1.450000 0.000000
v 1.450000 1.450000 0.100000
v -1.450000 1.450000 0.100000
v -1.450000 1.450000 0.000000
v 1.450000 1.450000 0.000000
v -1.450000 1.450000 0.100000
v -1.450000 -1.450000 0.100000
v -1.450000 1.450000 0.000000
v -1.450000 -1.450000 0.000000
vn -0.0000 -1.0000 -0.0000
vn -1.0000 -0.0000 -0.0000
vn -0.0000 1.0000 -0.0000
vn 1.0000 -0.0000 -0.0000
vn -0.0000 -0.0000 1.0000
vn -0.0000 -0.0000 -1.0000
vt -0.008865 -0.000992
vt 1.008865 -0.000992
vt 0.078870 0.914614
vt 0.921130 0.914614
vt 0.921130 0.085386
vt 0.078870 0.085386
vt 1.008865 1.000992
vt -0.008865 1.000992
vt 0.866764 0.865527
vt 0.869473 0.134523
vt 0.137457 0.136413
vt 0.135567 0.865477
s 1
usemtl 0.615686_0.811765_0.929412_0.000000_0.002
f 1/1/1 4/1/1 3/2/1
f 3/2/1 2/2/1 1/1/1
f 5/3/1 6/3/1 7/4/1
f 7/4/1 8/4/1 5/3/1
f 10/4/2 9/4/2 11/5/2
f 11/5/2 12/5/2 10/4/2
f 14/5/3 13/5/3 15/6/3
f 15/6/3 16/6/3 14/5/3
f 20/6/4 19/6/4 18/3/4
f 18/3/4 17/3/4 20/6/4
f 25/7/5 26/8/5 21/3/5
f 26/8/5 27/1/5 24/6/5
f 24/6/5 21/3/5 26/8/5
f 27/1/5 28/2/5 23/5/5
f 28/2/5 25/7/5 22/4/5
f 23/5/5 24/6/5 27/1/5
f 21/3/5 22/4/5 25/7/5
f 22/4/5 23/5/5 28/2/5
f 33/8/6 34/7/6 30/9/6
f 34/7/6 35/2/6 31/10/6
f 31/10/6 30/9/6 34/7/6
f 35/2/6 36/1/6 32/11/6
f 32/11/6 31/10/6 35/2/6
f 36/1/6 33/8/6 29/12/6
f 29/12/6 32/11/6 36/1/6
f 30/9/6 29/12/6 33/8/6
f 38/2/4 40/2/4 39/7/4
f 39/7/4 37/7/4 38/2/4
f 41/7/3 44/7/3 43/8/3
f 43/8/3 42/8/3 41/7/3
f 45/8/2 47/8/2 48/1/2
f 48/1/2 46/1/2 45/8/2
