# Blender 5.0.1
# www.blender.org
mtllib gate_uzh.mtl
o mesh0
v -1.200000 1.200000 0.250000
v -1.200000 1.200000 0.000000
v 1.200000 1.200000 0.000000
v 1.200000 1.200000 0.250000
v 1.200000 1.200000 0.000000
v 1.200000 1.200000 0.250000
v 1.200000 -1.200000 0.000000
v 1.200000 -1.200000 0.250000
v 1.200000 -1.200000 0.000000
v 1.200000 -1.200000 0.250000
v -1.200000 -1.200000 0.000000
v -1.200000 -1.200000 0.250000
v -1.200000 1.200000 0.250000
v -1.200000 1.200000 0.000000
v -1.200000 -1.200000 0.000000
v -1.200000 -1.200000 0.250000
v -1.200000 1.200000 0.250000
v 1.200000 1.200000 0.250000
v 1.200000 -1.200000 0.250000
v -1.200000 -1.200000 0.250000
v 1.700000 1.700000 0.250000
v -1.700000 1.700000 0.250000
v -1.700000 -1.700000 0.250000
v 1.700000 -1.700000 0.250000
v -1.200000 1.200000 0.000000
v 1.200000 1.200000 0.000000
v 1.200000 -1.200000 0.000000
v -1.200000 -1.200000 0.000000
v -1.700000 1.700000 0.000000
v 1.700000 1.700000 0.000000
v 1.700000 -1.700000 0.000000
v -1.700000 -1.700000 0.000000
v 1.700000 1.700000 0.250000
v 1.700000 -1.700000 0.250000
v 1.700000 1.700000 0.000000
v 1.700000 -1.700000 0.000000
v 1.700000 1.700000 0.250000
v -1.700000 1.700000 0.250000
v -1.700000 1.700000 0.000000
v 1.700000 1.700000 0.000000
v -1.700000 1.700000 0.250000
v -1.700000 -1.700000 0.250000
v -1.700000 1.700000 0.000000
v -1.700000 -1.700000 0.000000
v -1.700000 -1.700000 0.250000
v 1.700000 -1.700000 0.250000
v 1.700000 -1.700000 0.000000
v -1.700000 -1.700000 0.000000
vn -0.0000 -1.0000 -0.0000
vn -1.0000 -0.0000 -0.0000
vn -0.0000 1.0000 -0.0000
vn 1.0000 -0.0000 -0.0000
vn -0.0000 -0.0000 1.0000
vn -0.0000 -0.0000 -1.0000
vt 1.568052 -0.009035
vt 1.492712 -0.008846
vt 1.490923 -0.722025
vt 1.566262 -0.722214
vt 1.414764 -0.721834
vt 1.490104 -0.722023
vt 1.491893 -0.008844
vt 1.416553 -0.008655
vt 1.567081 -0.722216
vt 1.642421 -0.722405
vt 1.644210 -0.009226
vt 1.568871 -0.009037
vt 1.720369 -0.009418
vt 1.645029 -0.009228
vt 1.643240 -0.722407
vt 1.718580 -0.722596
vt -0.025054 -0.004231
vt 0.999566 -0.006801
vt 0.849260 0.142155
vt 1.002101 1.003535
vt 0.851049 0.855334
vt -0.022519 1.006105
vt 0.127788 0.857148
vt 0.125998 0.143970
vt 2.027540 1.000962
vt 1.002920 1.003533
vt 1.153227 0.854576
vt 1.000385 -0.006804
vt 1.151437 0.141397
vt 2.025005 -0.009374
vt 1.874699 0.139583
vt 1.876488 0.852761
vt 1.796528 -0.009609
vt 1.721188 -0.009420
vt 1.718653 -1.019756
vt 1.793993 -1.019945
vt 1.794812 -1.019947
vt 1.870151 -1.020136
vt 1.872686 -0.009800
vt 1.797346 -0.009611
vt 1.870970 -1.020138
vt 1.946310 -1.020327
vt 1.948845 -0.009991
vt 1.873505 -0.009802
vt 1.947129 -1.020329
vt 2.022469 -1.020518
vt 2.025003 -0.010182
vt 1.949664 -0.009993
s 1
usemtl 0.615686_0.811765_0.929412_0.000000_0.001
f 1/1/1 2/2/1 3/3/1
f 3/3/1 4/4/1 1/1/1
f 6/5/2 5/6/2 7/7/2
f 7/7/2 8/8/2 6/5/2
f 10/9/3 9/10/3 11/11/3
f 11/11/3 12/12/3 10/9/3
f 16/13/4 15/14/4 14/15/4
f 14/15/4 13/16/4 16/13/4
f 21/17/5 22/18/5 17/19/5
f 22/18/5 23/20/5 20/21/5
f 20/21/5 17/19/5 22/18/5
f 23/20/5 24/22/5 19/23/5
f 24/22/5 21/17/5 18/24/5
f 19/23/5 20/21/5 23/20/5
f 17/19/5 18/24/5 21/17/5
f 18/24/5 19/23/5 24/22/5
f 29/25/6 30/26/6 26/27/6
f 30/26/6 31/28/6 27/29/6
f 27/29/6 26/27/6 30/26/6
f 31/28/6 32/30/6 28/31/6
f 28/31/6 27/29/6 31/28/6
f 32/30/6 29/25/6 25/32/6
f 25/32/6 28/31/6 32/30/6
f 26/27/6 25/32/6 29/25/6
f 34/33/4 36/34/4 35/35/4
f 35/35/4 33/36/4 34/33/4
f 37/37/3 40/38/3 39/39/3
f 39/39/3 38/40/3 37/37/3
f 41/41/2 43/42/2 44/43/2
f 44/43/2 42/44/2 41/41/2
f 45/45/1 48/46/1 47/47/1
f 47/47/1 46/48/1 45/45/1
